<svg width="120" height="31" viewBox="0 0 120 31" fill="none" xmlns="http://www.w3.org/2000/svg">
<path d="M45.5324 14.07L42.8753 9.12307H41.798V14.07H39.2134V1.56447H44.1151C44.9525 1.56447 45.6774 1.70786 46.2873 1.99719C46.8972 2.28653 47.3646 2.70645 47.687 3.25696C48.0095 3.81003 48.1719 4.47064 48.1719 5.24391C48.1719 6.15033 47.9345 6.9108 47.4621 7.52532C46.9896 8.13984 46.3173 8.56744 45.4424 8.81325L48.4044 14.0725H45.5324V14.07ZM41.798 3.84588V7.02858H43.8077C44.3476 7.02858 44.76 6.89031 45.0475 6.61378C45.3349 6.33724 45.4774 5.93525 45.4774 5.40778C45.4774 4.88032 45.3349 4.45784 45.0475 4.21203C44.76 3.96622 44.3401 3.84332 43.7902 3.84332H41.798V3.84588Z" fill="#2B2D34"/>
<path d="M55.8207 4.34005H58.2803V14.07H55.8207V12.9126C55.5082 13.353 55.1133 13.7012 54.6359 13.9522C54.156 14.2031 53.6186 14.3286 53.0212 14.3286C52.2438 14.3286 51.5489 14.1109 50.939 13.6756C50.3291 13.2404 49.8517 12.6335 49.5117 11.8551C49.1693 11.0767 48.9993 10.1985 48.9993 9.21525C48.9993 8.23201 49.1693 7.33584 49.5117 6.55744C49.8517 5.77905 50.3291 5.17221 50.939 4.73693C51.5489 4.30164 52.2438 4.084 53.0212 4.084C53.6186 4.084 54.1585 4.21202 54.6359 4.47064C55.1133 4.72925 55.5082 5.07747 55.8207 5.52044V4.34261V4.34005ZM54.8509 11.7143C55.1733 11.4941 55.4283 11.1715 55.6132 10.749C55.7982 10.3265 55.8907 9.8144 55.8907 9.21268C55.8907 8.61097 55.7982 8.09887 55.6132 7.67638C55.4283 7.2539 55.1733 6.93128 54.8509 6.71107C54.5284 6.49087 54.156 6.38077 53.7385 6.38077C53.3211 6.38077 52.9462 6.49087 52.6162 6.71107C52.2863 6.93128 52.0338 7.2539 51.8539 7.67638C51.6739 8.09887 51.5839 8.61097 51.5839 9.21268C51.5839 9.8144 51.6739 10.3265 51.8539 10.749C52.0338 11.1715 52.2863 11.4941 52.6162 11.7143C52.9462 11.9345 53.3186 12.0446 53.7385 12.0446C54.1585 12.0446 54.5284 11.9345 54.8509 11.7143Z" fill="#2B2D34"/>
<path d="M60.5849 2.56562C60.3149 2.28909 60.1799 1.93062 60.1799 1.49021C60.1799 1.04981 60.3149 0.691336 60.5849 0.414801C60.8548 0.138267 61.2048 0 61.6347 0C62.0646 0 62.4121 0.138267 62.677 0.414801C62.9395 0.691336 63.072 1.04981 63.072 1.49021C63.072 1.93062 62.9395 2.28909 62.677 2.56562C62.4146 2.84216 62.0671 2.98042 61.6347 2.98042C61.2023 2.98042 60.8548 2.84216 60.5849 2.56562ZM62.837 14.07H60.3774V4.34005H62.837V14.07Z" fill="#2B2D34"/>
<path d="M68.0986 4.34005H70.7007V6.54721H68.0986V14.07H65.639V6.54721H64.0243V4.34005H65.639V3.75114C65.639 2.68341 65.939 1.86917 66.5364 1.30586C67.1338 0.742547 67.9536 0.460892 68.996 0.460892C69.3784 0.460892 69.7433 0.496739 70.0908 0.570993C70.4382 0.645248 70.7557 0.742547 71.0431 0.865451L70.4157 2.79607C70.0933 2.66036 69.7383 2.59379 69.3559 2.59379C68.9135 2.59379 68.5935 2.69877 68.3961 2.90617C68.1986 3.11357 68.1011 3.43363 68.1011 3.86124V4.34005H68.0986Z" fill="#2B2D34"/>
<path d="M74.3826 4.34005H76.9847V6.54721H74.3826V14.07H71.923V6.54721H70.3083V4.34005H71.923V3.75114C71.923 2.68341 72.223 1.86917 72.8204 1.30586C73.4178 0.742547 74.2376 0.460892 75.28 0.460892C75.6624 0.460892 76.0273 0.496739 76.3748 0.570993C76.7222 0.645248 77.0397 0.742547 77.3271 0.865451L76.6997 2.79607C76.3773 2.66036 76.0223 2.59379 75.6399 2.59379C75.1975 2.59379 74.8775 2.69877 74.6801 2.90617C74.4826 3.11357 74.3851 3.43363 74.3851 3.86124V4.34005H74.3826Z" fill="#2B2D34"/>
<path d="M86.5556 10.0961H80.1466C80.2291 10.8309 80.4641 11.3661 80.8465 11.6964C81.229 12.0267 81.7914 12.1931 82.5337 12.1931C83.0487 12.1931 83.5236 12.1163 83.961 11.9627C84.3984 11.809 84.7784 11.5914 85.1008 11.3097L86.1606 13.0381C85.6807 13.4554 85.1258 13.7729 84.4909 13.9931C83.856 14.2133 83.1736 14.3234 82.4438 14.3234C81.4139 14.3234 80.5291 14.1212 79.7867 13.7166C79.0443 13.312 78.4794 12.7283 78.0895 11.9703C77.6996 11.2099 77.5071 10.3086 77.5071 9.26645C77.5071 8.22433 77.6971 7.33071 78.082 6.54464C78.4644 5.76113 79.0068 5.15429 79.7067 4.72412C80.4066 4.29396 81.2065 4.08144 82.1038 4.08144C83.0012 4.08144 83.786 4.28884 84.4559 4.7062C85.1258 5.12356 85.6432 5.7176 86.0082 6.49087C86.3731 7.26414 86.5556 8.17056 86.5556 9.21268V10.0961ZM80.1466 8.36772H84.0785C84.0185 7.64566 83.821 7.10539 83.4861 6.74948C83.1511 6.39357 82.6962 6.2169 82.1213 6.2169C80.9715 6.2169 80.3141 6.93384 80.1466 8.36772Z" fill="#2B2D34"/>
<path d="M88.2678 2.56562C87.9978 2.28909 87.8629 1.93062 87.8629 1.49021C87.8629 1.04981 87.9978 0.691336 88.2678 0.414801C88.5377 0.138267 88.8877 0 89.3176 0C89.7475 0 90.095 0.138267 90.3599 0.414801C90.6224 0.691336 90.7549 1.04981 90.7549 1.49021C90.7549 1.93062 90.6224 2.28909 90.3599 2.56562C90.0975 2.84216 89.75 2.98042 89.3176 2.98042C88.8852 2.98042 88.5377 2.84216 88.2678 2.56562ZM90.5199 14.07H88.0603V4.34005H90.5199V14.07Z" fill="#2B2D34"/>
<path d="M93.6644 14.006C92.9945 13.7909 92.4246 13.458 91.9597 13.0022L93.1095 11.1996C93.8143 11.8859 94.7142 12.229 95.8015 12.229C96.2814 12.229 96.6414 12.1522 96.8888 11.9985C97.1338 11.8449 97.2563 11.6144 97.2563 11.3097C97.2563 11.0511 97.1463 10.8412 96.9238 10.6747C96.7014 10.5083 96.2989 10.3521 95.7115 10.2062C94.9567 10.0346 94.3393 9.84514 93.8543 9.63518C93.3694 9.42522 92.977 9.13332 92.6795 8.7518C92.3796 8.37285 92.2296 7.87611 92.2296 7.26159C92.2296 6.61122 92.3921 6.04791 92.7145 5.5691C93.037 5.09029 93.4994 4.72413 94.0968 4.46552C94.6942 4.20947 95.3891 4.07889 96.179 4.07889C96.9213 4.07889 97.6062 4.18899 98.2336 4.40919C98.861 4.6294 99.3984 4.95458 99.8408 5.38474L98.691 7.11308C98.3686 6.80582 97.9837 6.57282 97.5412 6.41407C97.0988 6.25531 96.6364 6.17594 96.159 6.17594C95.6815 6.17594 95.3566 6.25019 95.1166 6.39614C94.8767 6.54209 94.7567 6.76485 94.7567 7.05931C94.7567 7.23087 94.8067 7.37425 94.9092 7.49204C95.0116 7.60982 95.1866 7.72248 95.4391 7.83258C95.6915 7.94269 96.049 8.05279 96.5164 8.16289C97.1638 8.32164 97.7187 8.51368 98.1861 8.73388C98.6535 8.95408 99.036 9.26647 99.3359 9.67102C99.6359 10.0756 99.7858 10.5902 99.7858 11.215C99.7858 11.8398 99.6309 12.3852 99.3184 12.8512C99.006 13.3172 98.5536 13.6782 97.9537 13.9368C97.3538 14.1954 96.6364 14.3235 95.799 14.3235C95.0441 14.3235 94.3318 14.2159 93.6619 14.0008L93.6644 14.006Z" fill="#2B2D34"/>
<path d="M109.839 10.0961H103.43C103.513 10.8309 103.748 11.3661 104.13 11.6964C104.513 12.0267 105.075 12.1931 105.817 12.1931C106.332 12.1931 106.807 12.1163 107.245 11.9627C107.682 11.809 108.062 11.5914 108.384 11.3097L109.444 13.0381C108.964 13.4554 108.409 13.7729 107.775 13.9931C107.14 14.2133 106.457 14.3234 105.727 14.3234C104.698 14.3234 103.813 14.1212 103.07 13.7166C102.328 13.312 101.763 12.7283 101.373 11.9703C100.983 11.2099 100.791 10.3086 100.791 9.26645C100.791 8.22433 100.981 7.33071 101.366 6.54464C101.748 5.76113 102.29 5.15429 102.99 4.72412C103.69 4.29396 104.49 4.08144 105.387 4.08144C106.285 4.08144 107.07 4.28884 107.74 4.7062C108.409 5.12356 108.927 5.7176 109.292 6.49087C109.657 7.26414 109.839 8.17056 109.839 9.21268V10.0961ZM103.43 8.36772H107.362C107.302 7.64566 107.105 7.10539 106.77 6.74948C106.435 6.39357 105.98 6.2169 105.405 6.2169C104.255 6.2169 103.598 6.93384 103.43 8.36772Z" fill="#2B2D34"/>
<path d="M118.41 4.53464C118.918 4.83422 119.31 5.27207 119.585 5.84818C119.86 6.4243 119.997 7.11819 119.997 7.92731V14.07H117.52V8.23969C117.52 7.61493 117.38 7.14636 117.098 6.83398C116.816 6.52159 116.388 6.3654 115.813 6.3654C115.383 6.3654 115.003 6.4627 114.673 6.65986C114.343 6.85702 114.053 7.15148 113.804 7.54323V14.0725H111.344V4.34005H113.804V5.47947C114.103 5.03906 114.496 4.69596 114.981 4.45015C115.466 4.20434 116.006 4.08144 116.606 4.08144C117.3 4.08144 117.9 4.23251 118.41 4.53208V4.53464Z" fill="#2B2D34"/>
<path d="M47.687 25.3106C48.0345 25.8201 48.2069 26.4423 48.2069 27.1772C48.2069 28.3166 47.8495 29.1974 47.1396 29.817C46.4272 30.4367 45.4199 30.7465 44.1151 30.7465H39.2134V18.241H43.6827C44.975 18.241 45.9748 18.5252 46.6797 19.0962C47.3846 19.6672 47.7395 20.4738 47.7395 21.5159C47.7395 22.7552 47.2196 23.6437 46.1773 24.1814C46.8347 24.4272 47.3371 24.8036 47.6845 25.3131L47.687 25.3106ZM41.798 20.484V23.4081H43.4852C44.0351 23.4081 44.4401 23.2852 44.6975 23.0394C44.955 22.7936 45.0825 22.4326 45.0825 21.9537C45.0825 21.4263 44.945 21.0499 44.67 20.822C44.3951 20.5967 43.9826 20.4815 43.4302 20.4815H41.7955L41.798 20.484ZM43.8077 28.5009C44.3701 28.5009 44.7925 28.378 45.0725 28.1322C45.3524 27.8864 45.4949 27.4947 45.4949 26.9544C45.4949 26.4525 45.3599 26.0787 45.09 25.8329C44.82 25.5871 44.3751 25.4642 43.7527 25.4642H41.7955V28.4984H43.8052L43.8077 28.5009Z" fill="#2B2D34"/>
<path d="M55.9807 21.014H58.4403V30.7414H55.9807V29.584C55.6682 30.0245 55.2733 30.3727 54.7959 30.6236C54.3159 30.8745 53.7785 31 53.1811 31C52.4038 31 51.7089 30.7824 51.099 30.3471C50.4891 29.9118 50.0117 29.305 49.6717 28.5266C49.3293 27.7482 49.1593 26.8699 49.1593 25.8867C49.1593 24.9034 49.3293 24.0073 49.6717 23.2289C50.0117 22.4505 50.4891 21.8436 51.099 21.4084C51.7089 20.9731 52.4038 20.7554 53.1811 20.7554C53.7785 20.7554 54.3184 20.8835 54.7959 21.1421C55.2733 21.4007 55.6682 21.7489 55.9807 22.1919V21.014ZM55.0108 28.3883C55.3333 28.1681 55.5882 27.8455 55.7732 27.423C55.9582 27.0005 56.0507 26.4884 56.0507 25.8867C56.0507 25.285 55.9582 24.7729 55.7732 24.3504C55.5882 23.9279 55.3333 23.6053 55.0108 23.3851C54.6884 23.1649 54.3159 23.0548 53.8985 23.0548C53.4811 23.0548 53.1061 23.1649 52.7762 23.3851C52.4463 23.6053 52.1938 23.9279 52.0138 24.3504C51.8339 24.7729 51.7439 25.285 51.7439 25.8867C51.7439 26.4884 51.8339 27.0005 52.0138 27.423C52.1938 27.8455 52.4463 28.1681 52.7762 28.3883C53.1061 28.6085 53.4786 28.7186 53.8985 28.7186C54.3184 28.7186 54.6884 28.6085 55.0108 28.3883Z" fill="#2B2D34"/>
<path d="M67.6062 21.2086C68.1137 21.5082 68.5061 21.9461 68.781 22.5222C69.056 23.0983 69.1935 23.7922 69.1935 24.6013V30.744H66.7164V24.9137C66.7164 24.2889 66.5764 23.8204 66.294 23.508C66.0115 23.1956 65.5841 23.0394 65.0092 23.0394C64.5792 23.0394 64.1993 23.1367 63.8694 23.3339C63.5394 23.531 63.2495 23.8255 62.9995 24.2172V30.7465H60.5399V21.0192H62.9995V22.1586C63.2995 21.7182 63.6919 21.3751 64.1768 21.1293C64.6617 20.8835 65.2016 20.7606 65.8015 20.7606C66.4964 20.7606 67.0963 20.9116 67.6062 21.2112V21.2086Z" fill="#2B2D34"/>
<path d="M75.9448 25.5564L79.7517 30.7414H76.8072L73.5577 26.3271V30.7414H71.0981V17.501H73.5577V24.9675L76.6447 21.014H79.5717L75.9448 25.5564Z" fill="#2B2D34"/>
<path fill-rule="evenodd" clip-rule="evenodd" d="M24.251 13.2378L29.3351 8.02973L30.6949 9.42264L30.7024 9.41496C30.7024 8.52134 30.4449 5.44618 28.0328 3.03675C25.3333 0.34054 22.6287 1.91781 21.6989 2.87032L16.8022 7.88634L18.0145 9.12818L15.3499 11.8577L12.6854 9.12818L13.8977 7.88634L9.0035 2.87032C8.07116 1.91781 5.36911 0.34054 2.66956 3.03675C0.257457 5.44618 0 8.52134 0 9.41496L0.00749875 9.42264L1.36727 8.02973L6.45143 13.2378L7.85119 11.8039V8.37283L9.29095 9.84768V13.9957L11.2756 16.0287L0.982336 26.5729L5.05666 30.7465L15.3499 20.2024L25.6432 30.7465L29.7175 26.5729L19.4243 16.0287L21.4089 13.9957V9.84768L22.8487 8.37283V11.8039L24.2485 13.2378H24.251Z" fill="#2B2D34"/>
</svg>
